<svg xmlns="http://www.w3.org/2000/svg" xmlns:xlink="http://www.w3.org/1999/xlink" preserveAspectRatio="xMidYMid meet" version="1.0" viewBox="-4.4 -1.0 549.6 559.1" zoomAndPan="magnify" style="fill: rgb(0, 0, 0);" original_string_length="1619"><g id="__id116_sce8zykzg"><path d="M508.1115,326.118l-186.4367-47.5481l189.8923-24.6351c21.1559-5.7713,33.6275-27.6003,27.8561-48.7562 c-5.7712-21.1559-27.6-33.6275-48.7562-27.8562L311.889,248.4398l139.1458-131.5459c13.7232-17.1042,10.9823-42.0948-6.122-55.818 c-17.1044-13.7232-42.0949-10.9823-55.818,6.1219l-96.2644,152.2311l28.6821-177.8235 c1.0486-21.9039-15.8579-40.5107-37.7618-41.5592h-0.0002c-21.9039-1.0486-40.5105,15.8579-41.5592,37.7618l17.6415,191.682 L172.4731,56.8272c-12.0264-18.337-36.6409-23.4527-54.9779-11.4263s-23.4527,36.6409-11.4263,54.9779l126.9401,144.7046 L60.8448,156.745c-20.5078-7.766-43.4283,2.5633-51.1942,23.0711v0.0002c-7.766,20.5078,2.5633,43.4282,23.0711,51.1942 l187.7522,42.4548l-191.208,29.7283C8.11,308.965-4.3616,330.7938,1.4098,351.9497v0.0002 c5.7714,21.1557,27.6003,33.6275,48.7562,27.8561l176.8491-76.0113L89.7984,440.2345 c-13.7231,17.1043-10.9821,42.0948,6.122,55.8179v0.0002c17.1044,13.7231,42.0948,10.9821,55.818-6.1221l105.6451-177.6328 L219.3209,515.523c-1.0487,21.9039,15.8579,40.5105,37.7618,41.5592s40.5107-15.8579,41.5593-37.7617L286.251,327.3159 l82.1092,172.9854c12.0264,18.337,36.6408,23.4527,54.9778,11.4263c18.337-12.0264,23.4527-36.6409,11.4264-54.978 L311.8822,308.6977l168.1061,91.6857c20.5078,7.766,43.4283-2.5633,51.1942-23.0712 C538.9485,356.8045,528.6193,333.8841,508.1115,326.118z" style="fill: rgb(255, 255, 255);"/></g></svg>